<svg id="visual" viewBox="0 0 1080 540" width="1080" height="540" xmlns="http://www.w3.org/2000/svg" xmlns:xlink="http://www.w3.org/1999/xlink" version="1.1"><rect x="0" y="0" width="1080" height="540" fill="#FFFFFF"></rect><g fill="none" stroke="#ffbfff" stroke-width="2"><circle r="32" cx="205" cy="159"></circle><circle r="1" cx="786" cy="315"></circle><circle r="21" cx="928" cy="36"></circle><circle r="23" cx="952" cy="121"></circle><circle r="6" cx="974" cy="194"></circle><circle r="7" cx="85" cy="29"></circle><circle r="20" cx="289" cy="18"></circle><circle r="29" cx="77" cy="202"></circle><circle r="15" cx="406" cy="465"></circle><circle r="12" cx="67" cy="514"></circle><circle r="27" cx="52" cy="120"></circle><circle r="28" cx="703" cy="184"></circle><circle r="24" cx="990" cy="342"></circle><circle r="3" cx="560" cy="394"></circle><circle r="9" cx="1000" cy="487"></circle><circle r="2" cx="9" cy="344"></circle><circle r="10" cx="1058" cy="265"></circle><circle r="19" cx="488" cy="71"></circle><circle r="8" cx="328" cy="154"></circle><circle r="11" cx="189" cy="285"></circle><circle r="19" cx="258" cy="241"></circle><circle r="29" cx="555" cy="156"></circle><circle r="16" cx="685" cy="49"></circle><circle r="6" cx="1076" cy="373"></circle><circle r="6" cx="1048" cy="35"></circle><circle r="9" cx="755" cy="438"></circle><circle r="13" cx="630" cy="300"></circle><circle r="13" cx="662" cy="535"></circle><circle r="0" cx="748" cy="539"></circle><circle r="26" cx="842" cy="263"></circle><circle r="5" cx="602" cy="237"></circle><circle r="12" cx="504" cy="460"></circle><circle r="24" cx="508" cy="311"></circle><circle r="7" cx="210" cy="450"></circle><circle r="26" cx="813" cy="1"></circle><circle r="23" cx="714" cy="278"></circle><circle r="8" cx="129" cy="538"></circle><circle r="0" cx="274" cy="428"></circle><circle r="20" cx="167" cy="75"></circle><circle r="17" cx="363" cy="523"></circle><circle r="10" cx="934" cy="464"></circle><circle r="18" cx="805" cy="106"></circle><circle r="10" cx="395" cy="73"></circle><circle r="18" cx="1077" cy="133"></circle><circle r="17" cx="430" cy="308"></circle><circle r="5" cx="738" cy="101"></circle><circle r="27" cx="577" cy="467"></circle><circle r="4" cx="842" cy="415"></circle><circle r="0" cx="340" cy="368"></circle><circle r="27" cx="274" cy="539"></circle><circle r="12" cx="911" cy="345"></circle><circle r="18" cx="533" cy="227"></circle><circle r="30" cx="64" cy="269"></circle><circle r="16" cx="423" cy="166"></circle></g><g fill="none" stroke="#b400ba" stroke-width="2"><circle r="1" cx="608" cy="11"></circle><circle r="17" cx="120" cy="446"></circle><circle r="1" cx="668" cy="454"></circle><circle r="25" cx="864" cy="181"></circle><circle r="13" cx="245" cy="101"></circle><circle r="7" cx="626" cy="95"></circle><circle r="5" cx="81" cy="372"></circle><circle r="30" cx="195" cy="360"></circle><circle r="13" cx="343" cy="265"></circle><circle r="6" cx="487" cy="376"></circle><circle r="23" cx="279" cy="304"></circle><circle r="25" cx="684" cy="367"></circle><circle r="3" cx="846" cy="502"></circle><circle r="27" cx="953" cy="397"></circle><circle r="0" cx="878" cy="100"></circle><circle r="4" cx="780" cy="230"></circle><circle r="21" cx="34" cy="434"></circle><circle r="25" cx="1059" cy="518"></circle><circle r="6" cx="559" cy="87"></circle><circle r="1" cx="1018" cy="418"></circle><circle r="16" cx="906" cy="243"></circle><circle r="26" cx="170" cy="217"></circle><circle r="18" cx="478" cy="530"></circle><circle r="27" cx="409" cy="390"></circle><circle r="5" cx="364" cy="12"></circle><circle r="21" cx="447" cy="16"></circle><circle r="27" cx="515" cy="2"></circle><circle r="13" cx="445" cy="229"></circle><circle r="23" cx="2" cy="74"></circle><circle r="0" cx="123" cy="153"></circle><circle r="7" cx="986" cy="269"></circle><circle r="10" cx="490" cy="173"></circle><circle r="1" cx="203" cy="531"></circle><circle r="29" cx="10" cy="193"></circle><circle r="1" cx="569" cy="537"></circle><circle r="18" cx="323" cy="87"></circle><circle r="30" cx="918" cy="537"></circle><circle r="6" cx="126" cy="312"></circle><circle r="3" cx="341" cy="444"></circle><circle r="22" cx="1058" cy="197"></circle><circle r="28" cx="4" cy="6"></circle><circle r="14" cx="766" cy="162"></circle><circle r="9" cx="177" cy="2"></circle><circle r="25" cx="748" cy="27"></circle><circle r="28" cx="625" cy="164"></circle></g></svg>